<svg width="372" height="363" viewBox="0 0 372 363" fill="none" xmlns="http://www.w3.org/2000/svg">
<path d="M279.52 280.285C243.248 395.904 117.503 382.095 83.9495 289.645C51.4017 293.292 42.5523 286.061 31.1766 264.686C10.0495 243.938 6.1 230.546 12.5508 213.208C-9.60136 171.704 0.133664 155.489 21.8637 135.21C14.8209 128.876 11.6682 75.0999 56.0109 68.1326C54.8969 48.0847 64.1195 42.1142 83.9495 35.3737C92.2879 12.5815 109.54 9.64082 146.035 11.9746C181.667 0.603716 198.814 1.52155 223.643 11.9746C267.444 -24 319.578 31.4307 310.563 43.1735C322.98 40.0536 353.236 60.5811 346.262 86.8519C375.757 108.234 374.608 123.918 366.44 153.93C374.163 175.307 370.751 183.956 361.784 197.608C364.84 214.303 362.459 225.391 343.158 239.727C326.023 273.545 311.459 281.047 279.52 280.285Z" fill="#FBFBFE"/>
<path d="M104.023 102.761L285.491 81.4832C298.285 122.295 326.163 268.061 276.716 248.665C270.685 273.217 261.578 296.116 248.007 313.714C238.918 326.213 227.598 335.636 213.509 340.463C213.509 340.463 173.267 370.95 123.984 326.481C106.431 310.642 95.1687 286.124 87.986 258.392C37.5102 203.656 98.6378 113.039 104.023 102.761Z" fill="#FBFBFE"/>
<path d="M360.099 116.998C356.296 103.811 347.284 93.0304 334.848 88.6716C335.128 83.8092 334.75 78.931 333.723 74.1708C330.348 58.479 317.484 52.5977 303.409 50.1051C299.557 38.4161 293.627 27.476 285.067 19.4091C268.706 3.82785 244.2 6.40631 226.775 18.5988C225.76 19.2884 224.97 20.2617 224.501 21.3982C213.104 14.0312 199.017 11.6983 185.37 11.5018C173.142 11.3299 159.471 13.2085 149.774 20.5756C134.856 18.5496 119.314 19.3477 105.117 24.738C97.205 27.7584 91.8612 34.4256 91.3599 41.9277C81.8341 41.3629 73.8735 44.2975 68.8233 54.2061C65.2649 61.2048 63.1249 68.5105 65.4483 74.8338C53.7948 76.0617 42.7038 80.4451 35.6604 90.6975C26.1346 104.56 29.3384 121.737 33.7039 136.864C23.5789 143.679 15.545 152.924 13.3683 165.927C11.6442 176.253 13.3683 186.604 16.4376 196.501C18.2229 202.235 19.8004 209.037 23.4322 213.948C19.3846 219.412 18.5409 226.963 21.6102 234.895C25.1319 243.969 31.0992 255.204 40.1114 260.09C42.1902 268.464 49.5761 274.824 57.451 278.508C62.4157 280.804 67.466 282.633 73.0176 282.191C79.4251 281.639 85.2458 278.655 91.58 277.661C91.9025 277.598 92.221 277.516 92.5338 277.415C92.0536 274.54 91.857 271.624 91.9468 268.71C91.6678 267.796 91.5763 266.836 91.6778 265.886C91.4938 265.248 91.4072 264.585 91.421 263.921C91.5189 259.992 91.311 256.124 91.421 252.232C91.3824 250.401 91.4354 248.569 91.58 246.744C90.6934 246.478 89.7567 246.427 88.8468 246.596C87.937 246.765 87.08 247.148 86.3463 247.714C86.0454 247.798 85.7512 247.905 85.4659 248.033C75.9157 252.294 76.0135 228.388 76.1724 222.15C78.6181 225.502 81.773 228.67 85.5026 229.37C91.042 230.413 95.5297 225.686 97.2417 220.775C99.2348 215.115 99.0637 208.288 99.3204 202.357C99.7243 194.5 99.1865 186.622 97.7186 178.893C97.6037 178.329 97.4102 177.783 97.1438 177.273C97.3837 175.888 97.2004 174.462 96.618 173.184C96.5794 172.467 96.4352 171.759 96.19 171.084C96.0066 169.709 95.811 168.358 95.5664 167.057C97.3624 165.473 98.8472 163.566 99.9441 161.433C102.39 156.522 102.867 150.886 103.49 145.471C103.865 142.304 104.236 139.136 104.603 135.968C110.157 137.655 115.92 138.552 121.723 138.632C128.362 138.632 133.853 135.256 139.282 131.757C145.032 128.293 150.074 123.764 154.14 118.41C154.653 117.685 155.118 116.949 155.57 116.2C166.245 116.814 177.067 114.112 187.364 111.19C192.607 109.861 197.598 107.675 202.135 104.719C203.187 104.265 204.239 103.786 205.266 103.271C208.608 101.626 211.818 99.7207 214.865 97.5734C215.476 97.1437 216.088 96.6894 216.65 96.2228C217.995 95.4861 219.304 94.7003 220.588 93.8408C224.199 99.2019 228.359 104.169 232.999 108.661C238.783 114.248 245.227 119.576 252.699 122.499C252.696 122.994 252.745 123.487 252.846 123.972C253.983 129.362 256.844 134.458 258.52 139.737C260.06 144.649 261.467 149.474 263.411 154.189C265.902 160.691 269.911 166.498 275.101 171.121C273.988 180.76 273.169 190.423 272.655 200.11C272.35 206.446 272.325 212.291 275.309 217.57C275.436 218.89 276.03 220.12 276.984 221.037C277.938 221.954 279.187 222.497 280.506 222.568C281.385 222.733 282.292 222.661 283.135 222.359C289.249 221.131 294.373 214.894 298.469 209C299.366 214.713 299.465 220.523 298.763 226.263C297.674 233.25 288.515 230.806 283.661 229.21C283.193 229.057 282.708 228.958 282.218 228.915C282.242 230.45 281.765 231.951 280.861 233.188C280.861 233.188 280.861 233.274 280.628 233.594V233.741C280.433 234.257 280.237 234.785 280.053 235.313C279.555 236.83 279.146 238.375 278.831 239.942C278.613 240.865 278.152 241.713 277.498 242.397C277.628 242.856 277.787 243.334 277.975 243.834C276.825 247.812 275.761 251.802 274.746 255.817C274.931 256.685 274.903 257.585 274.667 258.44C274.431 259.295 273.992 260.08 273.389 260.729C273.389 260.815 273.328 260.888 273.303 260.962C273.145 261.527 273.022 262.104 272.875 262.681C272.535 264.08 272.047 265.438 271.42 266.733C271.777 267.934 272.505 268.99 273.498 269.749C274.492 270.508 275.699 270.931 276.947 270.957C289.824 271.546 305.5 271.976 316.176 263.59C324.564 257.058 334.42 246.24 334.665 234.932C342.197 230.757 349.84 224.139 353.227 216.281C356.174 209.405 355.049 202.443 352.714 195.788C357.893 190.539 361.176 183.702 362.044 176.364C363.059 167.462 360.381 160.034 355.93 153.035C363.401 143.139 363.633 129.141 360.099 116.998Z" fill="#192229"/>
<path d="M143.08 182.037C142.451 182.036 141.826 182.123 141.221 182.295H140.952C139.683 182.264 138.439 182.647 137.406 183.388C130.974 184.763 131.438 195.519 138.812 195.519C140.081 195.55 141.325 195.167 142.358 194.426C142.481 194.426 142.578 194.353 142.701 194.316H143.08C150.955 194.316 150.967 182.037 143.08 182.037Z" fill="#192229"/>
<path d="M229.123 182.271C227.884 182.238 226.668 182.604 225.65 183.314C218.912 184.407 219.255 195.494 226.751 195.494C227.989 195.524 229.205 195.159 230.224 194.451C236.974 193.358 236.619 182.271 229.123 182.271Z" fill="#192229"/>
<path d="M171.014 173.553C171.019 173.5 171.019 173.446 171.014 173.393C170.195 171.036 169.155 168.763 167.908 166.603C167.385 165.19 166.687 163.85 165.829 162.613C165.68 162.373 165.444 162.199 165.171 162.128C164.898 162.057 164.609 162.095 164.362 162.232C164.283 162.271 164.212 162.325 164.154 162.392C164.114 162.386 164.072 162.386 164.032 162.392H163.751C163.605 162.429 163.471 162.5 163.359 162.6C163.342 162.507 163.313 162.416 163.274 162.33C163.31 162.284 163.335 162.229 163.347 162.171C163.417 162.047 163.45 161.907 163.445 161.765V161.471C163.464 161.369 163.464 161.265 163.445 161.164C163.367 160.894 163.193 160.662 162.956 160.513C162.626 160.341 162.283 160.182 161.941 160.034C161.819 159.786 161.648 159.567 161.437 159.389C161.227 159.212 160.982 159.08 160.718 159.003C159.935 158.745 159.153 158.524 158.358 158.303C158.295 158.156 158.201 158.024 158.083 157.916C157.965 157.808 157.825 157.726 157.673 157.677C157.589 157.647 157.503 157.622 157.416 157.603C157.401 157.406 157.318 157.22 157.183 157.077C157.047 156.934 156.866 156.842 156.67 156.817L155.704 156.694C155.568 156.624 155.417 156.591 155.264 156.596H154.53H153.98C153.969 156.394 153.888 156.202 153.752 156.052C153.617 155.903 153.434 155.804 153.234 155.774C151.777 155.52 150.299 155.401 148.82 155.418C148.724 155.336 148.613 155.275 148.493 155.237C148.374 155.199 148.248 155.186 148.123 155.197C147.022 155.197 145.922 155.332 144.833 155.43C144.678 155.324 144.496 155.264 144.308 155.258C143.794 155.258 143.293 155.258 142.791 155.258C142.763 154.996 142.643 154.752 142.453 154.57C142.263 154.388 142.014 154.279 141.752 154.263C138.438 154.136 135.128 154.589 131.969 155.602C131.73 155.7 131.528 155.871 131.391 156.092C131.255 156.312 131.192 156.571 131.211 156.83C131.087 156.669 130.92 156.547 130.729 156.48C130.538 156.412 130.332 156.402 130.135 156.449C129.548 156.584 128.912 156.756 128.374 156.94C128.254 156.834 128.107 156.764 127.949 156.738C127.791 156.712 127.629 156.731 127.482 156.793C126.357 157.21 125.256 157.677 124.168 158.168C124.052 157.991 123.882 157.856 123.683 157.785C123.485 157.715 123.268 157.711 123.067 157.775C120.371 158.606 117.873 159.985 115.73 161.827C115.607 161.727 115.46 161.66 115.304 161.632C115.148 161.604 114.988 161.616 114.838 161.667C113.461 162.175 112.177 162.905 111.035 163.828C110.933 163.927 110.852 164.045 110.798 164.176C110.743 164.307 110.715 164.448 110.717 164.589C110.717 164.589 110.717 164.663 110.717 164.7H110.656L109.555 165.547C109.432 165.61 109.327 165.703 109.249 165.817C109.16 165.924 109.097 166.05 109.066 166.186C109.023 166.326 109.023 166.475 109.066 166.615L107.843 167.622H107.721C107.51 167.629 107.306 167.697 107.132 167.818C106.959 167.94 106.825 168.109 106.746 168.305C106.667 168.502 106.647 168.717 106.687 168.925C106.728 169.133 106.828 169.324 106.975 169.476L106.156 170.188C106.054 170.287 105.973 170.405 105.919 170.536C105.864 170.667 105.836 170.808 105.838 170.95C105.821 171.043 105.821 171.139 105.838 171.232C105.807 171.374 105.807 171.52 105.838 171.662L105.618 171.834C105.374 171.929 105.162 172.09 105.006 172.3L104.016 173.626C103.885 173.851 103.839 174.116 103.889 174.371C103.939 174.627 104.079 174.855 104.285 175.014C104.49 175.172 104.746 175.25 105.004 175.234C105.262 175.218 105.506 175.11 105.691 174.928C107.755 172.559 109.995 170.35 112.392 168.322L112.844 168.052L113.395 167.733C113.539 167.787 113.694 167.804 113.847 167.78C113.999 167.756 114.142 167.693 114.263 167.598L114.483 167.45C114.852 167.403 115.214 167.308 115.559 167.168C116.459 166.805 117.224 166.17 117.748 165.351C117.794 165.282 117.831 165.208 117.858 165.13L119.668 163.902C119.734 164.018 119.823 164.119 119.93 164.198C120.037 164.278 120.159 164.335 120.289 164.365C120.419 164.395 120.554 164.397 120.684 164.373C120.815 164.348 120.94 164.296 121.05 164.221L123.764 162.527L124.743 161.986C124.901 162.141 125.103 162.245 125.32 162.284C125.538 162.324 125.763 162.297 125.965 162.207L126.21 162.097C126.3 162.338 126.473 162.539 126.696 162.665C126.92 162.79 127.181 162.833 127.433 162.785C128.85 162.538 130.181 161.929 131.297 161.016C131.566 161.095 131.854 161.068 132.104 160.943L133.461 160.292C133.563 160.516 133.748 160.691 133.976 160.781C134.204 160.87 134.458 160.867 134.684 160.771L135.907 160.353C136.252 160.171 136.623 160.042 137.007 159.973H137.313C137.368 160.181 137.496 160.361 137.674 160.481C137.852 160.601 138.067 160.652 138.279 160.624L143.745 160.267C143.9 160.348 144.072 160.39 144.247 160.39C144.36 160.41 144.476 160.41 144.589 160.39L146.668 160.574C146.782 160.624 146.901 160.661 147.022 160.685C147.113 160.757 147.217 160.811 147.328 160.845C147.891 161 148.462 161.119 149.04 161.201C149.505 161.422 149.982 161.618 150.458 161.79C150.504 161.978 150.598 162.151 150.731 162.291C150.864 162.431 151.032 162.533 151.217 162.588C151.975 162.806 152.764 162.897 153.552 162.858L156.683 163.227H156.829C156.863 163.422 156.953 163.604 157.087 163.75C157.222 163.896 157.396 164 157.588 164.049L158.908 164.258C158.897 164.499 158.965 164.736 159.102 164.934C159.239 165.131 159.438 165.278 159.666 165.351C160.354 165.561 161.064 165.684 161.782 165.719C161.806 165.763 161.835 165.804 161.867 165.842L162.014 165.989C162.182 166.14 162.372 166.264 162.577 166.358C162.693 166.421 162.816 166.471 162.943 166.505C163.017 166.69 163.146 166.847 163.312 166.955C163.479 167.063 163.675 167.116 163.873 167.107C164.048 167.116 164.221 167.076 164.375 166.991C164.528 166.906 164.655 166.781 164.741 166.628V167.978C164.745 168.219 164.827 168.451 164.973 168.641L165.12 169.071C165.15 169.21 165.218 169.337 165.316 169.439C165.388 169.557 165.489 169.654 165.609 169.722C165.686 169.765 165.768 169.798 165.854 169.82C165.949 169.934 166.07 170.024 166.205 170.084C166.341 170.143 166.488 170.171 166.636 170.164L166.722 170.483C166.766 170.632 166.841 170.77 166.942 170.888C167 171.059 167.111 171.205 167.26 171.306C167.688 172.742 168.165 174.167 168.703 175.566C168.791 175.835 168.968 176.065 169.204 176.217C169.378 176.307 169.571 176.353 169.767 176.352C169.761 176.401 169.761 176.451 169.767 176.5C169.767 176.598 169.767 176.696 169.767 176.794V176.868C169.782 177.151 169.894 177.42 170.085 177.629C170.287 177.83 170.559 177.944 170.843 177.948C171.356 177.948 171.98 177.469 171.907 176.868C171.759 175.728 171.459 174.612 171.014 173.553Z" fill="#192229"/>
<path d="M235.408 187.857C235.718 187.027 235.798 186.127 235.64 185.254C235.566 184.985 235.391 184.756 235.151 184.616C235.054 184.566 234.951 184.529 234.845 184.505C234.802 184.167 234.664 183.848 234.448 183.585C234.232 183.322 233.945 183.126 233.623 183.02C232.889 182.866 232.131 182.866 231.397 183.02L230.101 183.179C229.978 183.078 229.828 183.014 229.67 182.995C229.512 182.975 229.352 183.001 229.208 183.069L227.985 183.548L226.763 183.818C226.569 183.869 226.395 183.975 226.261 184.125V184.125C226.121 184.088 225.973 184.088 225.833 184.125C225.553 184.162 225.278 184.232 225.014 184.333C224.667 184.46 224.334 184.624 224.023 184.824C223.893 184.913 223.781 185.025 223.693 185.156C223.551 185.182 223.417 185.24 223.302 185.328L223.204 185.402C223.115 185.389 223.024 185.389 222.935 185.402C222.807 185.335 222.664 185.3 222.519 185.3C222.375 185.3 222.232 185.335 222.104 185.402V185.402L221.92 185.328C221.717 185.16 221.459 185.074 221.197 185.088C220.934 185.102 220.686 185.213 220.502 185.402L220.135 185.88C220.024 186.023 219.945 186.188 219.905 186.364C219.865 186.54 219.864 186.723 219.903 186.9C219.867 186.982 219.842 187.069 219.829 187.157C219.761 187.12 219.686 187.095 219.609 187.084C219.575 187.022 219.534 186.964 219.487 186.912C219.442 186.847 219.393 186.786 219.34 186.728L219.083 186.531C218.962 186.454 218.823 186.411 218.68 186.408C218.54 186.366 218.391 186.366 218.252 186.408C218.117 186.432 217.994 186.496 217.897 186.593C217.779 186.67 217.683 186.775 217.616 186.9L217.506 187.157C217.457 187.342 217.457 187.537 217.506 187.722L217.616 187.98C217.654 188.046 217.699 188.108 217.75 188.164C217.744 188.201 217.744 188.238 217.75 188.275C217.759 188.417 217.801 188.556 217.873 188.68L217.983 188.79C217.983 188.79 217.983 188.889 217.983 188.938C218.049 189.15 218.127 189.359 218.215 189.564C218.366 189.893 218.568 190.196 218.814 190.46V190.46C218.86 190.584 218.931 190.697 219.022 190.792C219.091 190.913 219.187 191.018 219.301 191.099C219.415 191.179 219.545 191.234 219.682 191.258L219.89 191.406C220.007 191.485 220.142 191.531 220.282 191.541C220.422 191.578 220.569 191.578 220.71 191.541L220.893 191.479C221.125 191.868 221.423 192.213 221.773 192.498L221.871 192.621C222.064 192.801 222.293 192.935 222.544 193.014H222.654C222.784 193.033 222.915 193.033 223.045 193.014C223.217 193.012 223.387 192.979 223.547 192.916V192.916H223.657C223.791 192.929 223.926 192.929 224.06 192.916H224.39C224.476 192.953 224.567 192.978 224.659 192.99C224.793 193.003 224.929 193.003 225.063 192.99H225.173C225.204 193.154 225.262 193.311 225.344 193.456C225.555 193.746 225.852 193.963 226.191 194.075C226.531 194.188 226.898 194.19 227.239 194.082C227.436 194.026 227.612 193.913 227.746 193.759C227.881 193.604 227.968 193.414 227.998 193.211C228.148 193.262 228.304 193.295 228.462 193.309C228.528 193.398 228.611 193.473 228.707 193.53C228.837 193.601 228.971 193.663 229.11 193.714H229.282L229.722 193.775H230.052H230.358L230.761 193.604H230.945C231.192 193.599 231.435 193.536 231.654 193.419C231.792 193.356 231.924 193.278 232.045 193.186C232.245 193.047 232.429 192.886 232.595 192.707C232.693 192.611 232.769 192.493 232.816 192.363C232.881 192.235 232.911 192.09 232.901 191.946C232.93 191.837 232.93 191.723 232.901 191.614C233.028 191.589 233.148 191.539 233.256 191.467C233.536 191.283 233.746 191.011 233.855 190.694C233.933 190.475 233.933 190.236 233.855 190.018L233.977 189.908L234.038 189.834C234.296 189.619 234.533 189.38 234.748 189.122V189.122L234.87 189.036C235.055 188.927 235.204 188.765 235.295 188.57C235.387 188.374 235.418 188.156 235.383 187.943L235.408 187.857Z" stroke="#192229" stroke-miterlimit="10"/>
<path d="M146.518 185.929C146.581 185.585 146.538 185.23 146.396 184.91C146.284 184.68 146.11 184.487 145.894 184.352C145.678 184.217 145.427 184.147 145.173 184.149C145.106 183.944 144.974 183.767 144.797 183.645C144.62 183.523 144.409 183.463 144.194 183.474C143.731 183.51 143.27 183.572 142.813 183.658C142.602 183.589 142.375 183.589 142.165 183.658L140.942 183.965C140.83 183.935 140.712 183.935 140.599 183.965C140.229 184.01 139.862 184.076 139.499 184.161C139.341 184.13 139.179 184.13 139.022 184.161C138.225 184.309 137.451 184.565 136.723 184.923C136.524 184.762 136.281 184.667 136.026 184.652C135.864 184.536 135.669 184.473 135.47 184.473C135.27 184.473 135.075 184.536 134.913 184.652L134.742 184.788C134.601 184.801 134.466 184.852 134.351 184.935L133.972 185.205C133.715 185.153 133.448 185.199 133.222 185.332C132.997 185.466 132.828 185.679 132.749 185.929L132.578 186.433C132.503 186.631 132.503 186.849 132.578 187.047V187.108C132.498 187.252 132.448 187.411 132.431 187.575C132.3 187.752 132.229 187.968 132.229 188.189C132.229 188.41 132.3 188.625 132.431 188.803C132.358 188.932 132.296 189.067 132.247 189.208C132.09 189.669 132.053 190.163 132.141 190.643C132.228 191.122 132.438 191.571 132.749 191.946C132.854 192.071 132.995 192.161 133.152 192.204C133.17 192.359 133.207 192.512 133.262 192.658C133.618 193.265 134.198 193.707 134.877 193.886C134.942 194.015 135.025 194.134 135.121 194.242C135.143 194.276 135.172 194.306 135.207 194.328C135.301 194.415 135.403 194.493 135.512 194.561L135.781 194.672C135.821 194.853 135.91 195.02 136.04 195.153C136.17 195.285 136.335 195.378 136.515 195.421H136.796C138.978 195.68 141.18 195.14 142.996 193.898C143.267 193.768 143.511 193.589 143.718 193.37C143.924 193.129 144.029 192.816 144.011 192.498L144.158 192.4L144.231 192.314C144.384 192.314 144.534 192.267 144.659 192.179C145.077 191.889 145.37 191.45 145.478 190.951C145.563 190.854 145.64 190.752 145.711 190.644C145.901 190.3 146.056 189.938 146.175 189.564L146.347 189.343C146.432 189.175 146.478 188.991 146.481 188.803L146.799 186.568C146.782 186.329 146.683 186.103 146.518 185.929Z" stroke="#192229" stroke-width="0.3" stroke-miterlimit="10"/>
<path d="M121.063 190.436C127.91 187.538 135.235 184.849 142.78 185.156C148.808 185.414 155.167 187.784 158.836 192.805C160.23 194.696 163.409 192.805 162.003 190.939C157.686 185.058 150.838 182.062 143.66 181.534C135.101 180.908 126.883 183.99 119.204 187.256C118.789 187.506 118.488 187.909 118.365 188.379C118.241 188.849 118.306 189.349 118.544 189.773C118.798 190.188 119.201 190.488 119.671 190.612C120.14 190.735 120.639 190.672 121.063 190.436Z" fill="#192229"/>
<path d="M132.882 184.603C129.8 188.287 131.133 193.923 135.022 196.415C139.534 199.325 145.648 196.992 148.632 193.014C149.566 191.85 150.194 190.468 150.459 188.997C150.724 187.525 150.617 186.01 150.148 184.591C149.994 184.138 149.675 183.761 149.256 183.533C148.837 183.306 148.348 183.245 147.886 183.363C147.428 183.508 147.044 183.826 146.816 184.25C146.588 184.674 146.533 185.171 146.663 185.635C146.962 186.417 147.063 187.261 146.959 188.092C146.854 188.923 146.547 189.716 146.064 190.399C145.184 191.814 143.877 192.911 142.334 193.53C141.592 193.839 140.802 194.018 139.999 194.058C139.164 194.129 138.324 193.994 137.553 193.665C137.431 193.665 137.015 193.37 136.758 193.211C136.501 193.051 136.758 193.284 136.575 193.063C136.391 192.842 136.232 192.744 136.073 192.572C135.914 192.4 135.755 192.179 135.914 192.4C135.792 192.241 135.682 192.056 135.572 191.884C135.462 191.713 135.401 191.578 135.327 191.418C135.254 191.258 135.144 191.05 135.23 191.246C135.315 191.442 135.23 191.086 135.156 191.05C134.857 190.345 134.752 189.574 134.851 188.815C134.851 188.606 134.851 188.815 134.851 188.889L134.924 188.557C134.972 188.335 135.038 188.118 135.12 187.906C134.997 188.226 135.242 187.673 135.291 187.587L135.437 187.378C135.596 187.12 135.168 187.673 135.511 187.268C135.846 186.918 136.033 186.452 136.033 185.966C136.033 185.481 135.846 185.015 135.511 184.665C135.165 184.323 134.7 184.131 134.215 184.131C133.73 184.131 133.264 184.323 132.918 184.665L132.882 184.603Z" fill="#192229"/>
<path d="M211.318 192.707C216.246 188.223 222.613 185.662 229.262 185.491C235.91 185.32 242.4 187.549 247.55 191.774C249.36 193.272 251.965 190.681 250.143 189.159C244.329 184.179 236.894 181.523 229.255 181.698C221.615 181.872 214.308 184.865 208.726 190.104C206.977 191.713 209.57 194.303 211.318 192.707Z" fill="#192229"/>
<path d="M217.8 186.494C218.009 186.955 218.085 187.466 218.02 187.968C218.002 188.646 218.051 189.325 218.167 189.994C218.477 191.295 219.203 192.46 220.233 193.309C222.435 195.073 225.212 195.948 228.022 195.765C229.412 195.714 230.778 195.384 232.038 194.793C233.299 194.203 234.428 193.364 235.359 192.327C236.265 191.293 236.934 190.072 237.319 188.75C237.703 187.429 237.794 186.038 237.585 184.677C237.443 184.216 237.127 183.828 236.704 183.599C236.281 183.369 235.785 183.315 235.323 183.449C234.871 183.599 234.493 183.916 234.266 184.336C234.039 184.756 233.979 185.247 234.1 185.709C234.17 186.543 234.053 187.383 233.759 188.167C233.465 188.95 233.001 189.658 232.4 190.239C230.999 191.455 229.208 192.124 227.356 192.124C225.504 192.124 223.713 191.455 222.312 190.239C222.077 189.966 221.901 189.648 221.794 189.304C221.686 188.959 221.651 188.597 221.688 188.238C221.785 186.999 221.535 185.757 220.967 184.653C219.744 182.639 216.552 184.481 217.8 186.507V186.494Z" fill="#192229"/>
<path d="M104.982 177.629C111.22 173.76 117.833 170.534 124.719 168.003C134.501 164.455 145.433 161.987 155.497 165.609C158.497 166.619 161.248 168.26 163.568 170.422C165.887 172.583 167.721 175.216 168.948 178.145C171.015 183.807 171.93 189.827 171.638 195.851C171.303 202.519 170.136 209.119 168.165 215.496C167.566 217.461 166.857 219.401 166.392 221.402C165.833 224.068 165.473 226.773 165.316 229.493C164.778 236.308 164.998 244.129 171.088 248.488C177.178 252.847 185.676 251.68 192.194 249.163C194.37 248.316 193.417 244.755 191.216 245.603C185.615 247.776 177.765 249.286 172.665 245.099C167.566 240.912 168.63 233.238 169.156 227.553C169.596 222.826 171.186 218.627 172.372 214.047C174.297 207.248 175.289 200.218 175.319 193.149C175.291 187.259 174.154 181.426 171.968 175.96C169.254 169.927 164.319 165.184 158.199 162.723C148.136 158.475 136.922 160.108 126.822 163.411C118.523 166.132 110.579 169.842 103.16 174.462C101.167 175.689 103.001 178.894 105.019 177.642L104.982 177.629Z" fill="#192229"/>
<path d="M201.769 171.564C217.311 163.632 235.58 165.265 252.198 168.113C254.497 168.506 255.499 164.958 253.164 164.553C235.494 161.532 216.479 159.961 199.922 168.384C197.819 169.452 199.665 172.632 201.769 171.564Z" fill="#192229"/>
<path d="M198.833 168.715C199.42 163.681 203.553 159.629 208.249 157.861C212.945 156.093 218.129 156.228 223.119 156.756C233.072 157.808 242.824 160.289 252.075 164.123" fill="#192229"/>
<path d="M88.2414 229.456C90.1106 235.646 90.9938 242.094 90.8582 248.561C90.7237 255.155 89.8188 261.724 90.3447 268.317C91.2618 279.81 95.3705 291.069 100.922 301.088C110.865 319.233 126.494 333.575 145.384 341.89C161.428 348.759 179.132 350.733 196.287 347.567C213.442 344.401 229.289 336.235 241.852 324.086C250.147 315.843 256.96 306.222 261.992 295.649C267.382 284.476 271.899 272.899 275.504 261.024C279.35 248.725 282.373 236.181 284.553 223.477C285.091 220.358 285.568 217.215 286.008 214.071C286.326 211.763 282.792 210.756 282.474 213.101C279.131 237.793 272.553 261.933 262.909 284.893C258.348 295.612 252.833 306.11 245.313 315.037C234.404 327.978 219.917 337.378 203.685 342.049C187.453 346.72 170.206 346.45 154.127 341.276C134.892 335.136 118.347 321.741 107.403 304.796C101.502 295.824 97.302 285.833 95.0158 275.328C92.4479 262.78 95.6762 250.108 93.793 237.499C93.3396 234.47 92.6693 231.479 91.7876 228.548C91.1028 226.276 87.5689 227.246 88.2414 229.53V229.456Z" fill="#192229"/>
<path d="M144.063 279.294C162.284 286.49 181.751 287.889 200.986 284.685C206.472 283.749 211.886 282.428 217.188 280.731C219.426 280.019 218.411 276.458 216.21 277.183C199.274 282.597 180.748 284.427 163.213 281.063C157.001 279.858 150.914 278.078 145.03 275.746C142.841 274.874 141.887 278.435 144.063 279.294Z" fill="#192229"/>
<path d="M104.884 175.69C108.626 167.758 115.89 162.11 124.021 159.273C128.836 157.652 133.864 156.758 138.94 156.621C143.786 156.353 148.647 156.704 153.406 157.665C155.947 158.177 158.38 159.128 160.596 160.477C162.234 161.533 164.656 164.05 162.65 165.928C160.926 167.549 163.531 170.152 165.255 168.531C166.067 167.73 166.635 166.714 166.895 165.601C167.155 164.489 167.095 163.325 166.722 162.245C165.701 159.768 163.783 157.771 161.354 156.658C156.365 153.957 150.605 153.245 145.017 152.975C133.841 152.447 122.04 154.313 112.747 160.955C108.045 164.227 104.257 168.652 101.742 173.811C100.739 175.947 103.894 177.814 104.909 175.677L104.884 175.69Z" fill="#192229"/>
<path d="M147.756 159.863L147.597 159.642C147.466 159.506 147.302 159.409 147.121 159.359L146.472 159.138C146.275 158.959 146.017 158.862 145.751 158.868C145.553 158.859 145.357 158.912 145.191 159.02C145.024 159.128 144.895 159.285 144.822 159.47C144.786 159.523 144.757 159.581 144.736 159.642V159.556L144.516 159.384C144.363 159.296 144.19 159.25 144.015 159.249C143.927 159.129 143.81 159.034 143.675 158.973C143.54 158.913 143.391 158.889 143.244 158.905L141.019 159.175C140.896 159.049 140.738 158.963 140.566 158.929C140.038 158.862 139.504 158.862 138.977 158.929C136.891 158.901 134.818 159.259 132.862 159.985C132.734 159.851 132.572 159.753 132.394 159.704C132.215 159.654 132.026 159.654 131.847 159.703L130.478 160.12C130.213 160.199 129.986 160.374 129.842 160.612L128.705 161.14L128.497 161.311C128.415 161.38 128.352 161.469 128.314 161.569C128.191 161.514 128.057 161.485 127.922 161.485C127.787 161.485 127.654 161.514 127.531 161.569L125.697 162.232C125.526 162.069 125.311 161.959 125.079 161.915C124.846 161.871 124.607 161.896 124.388 161.987L119.656 164.111C119.521 163.971 119.351 163.869 119.165 163.815C118.978 163.761 118.781 163.757 118.592 163.804L116.831 164.148C116.558 164.225 116.326 164.408 116.186 164.656C116.046 164.905 116.01 165.199 116.085 165.474L114.997 166.247L113.627 166.849C113.478 166.914 113.353 167.026 113.273 167.168C113.106 167.101 112.926 167.072 112.746 167.082C112.567 167.093 112.392 167.143 112.233 167.23C112.057 167.334 111.889 167.453 111.732 167.586L111.585 167.708C111.508 167.777 111.446 167.86 111.402 167.954L110.424 168.605C110.186 168.754 110.012 168.986 109.935 169.256C109.91 169.381 109.91 169.51 109.935 169.636C109.666 169.692 109.43 169.853 109.279 170.083C109.128 170.313 109.073 170.594 109.127 170.864C108.983 170.808 108.83 170.779 108.675 170.778C108.411 170.806 108.167 170.932 107.989 171.13C107.812 171.329 107.714 171.586 107.714 171.852C107.714 172.119 107.812 172.376 107.989 172.575C108.167 172.773 108.411 172.898 108.675 172.927C108.828 172.93 108.98 172.898 109.119 172.834C109.259 172.771 109.382 172.677 109.48 172.559C109.579 172.441 109.65 172.303 109.688 172.154C109.727 172.005 109.731 171.85 109.702 171.699C109.844 171.766 109.998 171.799 110.155 171.797C110.398 171.805 110.636 171.721 110.822 171.562C111.007 171.403 111.127 171.181 111.157 170.938C111.302 171.01 111.461 171.048 111.622 171.048H111.916C112.091 171 112.251 170.907 112.38 170.778L113.126 170.041L113.199 169.931L114.789 169.194H114.863C115.062 169.216 115.264 169.173 115.437 169.071L116.134 168.629C116.652 168.432 117.148 168.181 117.614 167.88C117.564 168.023 117.545 168.175 117.56 168.326C117.575 168.476 117.622 168.622 117.699 168.752C117.847 168.994 118.082 169.17 118.355 169.243C118.628 169.317 118.919 169.281 119.167 169.145L122.835 167.266C122.954 167.2 123.059 167.111 123.143 167.003C123.227 166.896 123.289 166.772 123.324 166.64C124.058 166.309 124.78 165.965 125.477 165.572L127.617 164.639C127.847 164.513 128.018 164.302 128.093 164.049C128.259 164.158 128.452 164.216 128.65 164.216C128.847 164.216 129.041 164.158 129.206 164.049C129.337 164.093 129.479 164.093 129.61 164.049L131.297 163.239C131.431 163.206 131.553 163.138 131.652 163.043C131.725 163.043 131.762 162.932 131.823 162.871C131.962 162.926 132.111 162.948 132.26 162.935C132.408 162.922 132.552 162.875 132.679 162.797L134.342 161.839C134.336 161.913 134.336 161.987 134.342 162.06C134.379 162.195 134.442 162.321 134.528 162.431C134.614 162.54 134.722 162.632 134.843 162.699C135.093 162.839 135.386 162.878 135.663 162.809L137.619 162.294C137.887 162.22 138.115 162.043 138.255 161.803C138.26 161.766 138.26 161.729 138.255 161.692L142.388 161.176L142.523 161.287C142.688 161.377 142.872 161.427 143.061 161.434H143.807C143.947 161.434 144.085 161.4 144.21 161.336C144.343 161.289 144.464 161.214 144.565 161.115C144.663 161.018 144.738 160.901 144.785 160.771L144.846 160.869C144.981 160.997 145.145 161.089 145.323 161.14L146.424 161.508C146.564 161.544 146.711 161.544 146.851 161.508C146.996 161.5 147.135 161.454 147.255 161.373C147.374 161.31 147.475 161.217 147.549 161.103C147.644 160.999 147.712 160.872 147.744 160.734V160.452C147.806 160.261 147.81 160.056 147.756 159.863Z" fill="#192229"/>
</svg>
